<svg viewBox="0 0 24 24"><path d="M5 3h14a2 2 0 012 2v14a2 2 0 01-2 2H5a2 2 0 01-2-2V5a2 2 0 012-2m10.09 13.5c-.28-1.36-.62-2.59-1.01-3.68l1.12-.08h.02c.65 0 1.37.08 2.14.26a5.49 5.49 0 01-2.27 3.5m-3.09.96c-1.21 0-2.34-.4-3.24-1.07.19-.32.6-.93 1.24-1.56.7-.65 1.64-1.33 2.86-1.72.42 1.16.79 2.49 1.08 3.99-.61.23-1.26.36-1.94.36M6.54 12v-.08l.6.01c1.1 0 3.01-.1 4.96-.71l.31.72c-1.3.44-2.32 1.13-3.07 1.82-.73.66-1.22 1.32-1.51 1.74-.8-.94-1.29-2.16-1.29-3.5m3.05-4.89c.38.45 1.14 1.43 1.95 2.97-1.65.49-3.31.6-4.32.6H6.7a5.47 5.47 0 012.89-3.57M12 6.54c1.29 0 2.47.46 3.41 1.2-.72.86-1.67 1.48-2.69 1.92a19.89 19.89 0 00-1.88-2.99c.37-.08.76-.13 1.16-.13m4.29 2.09c.68.87 1.11 1.94 1.16 3.11-.79-.16-1.53-.24-2.23-.24-.56 0-1.09.04-1.59.13l-.36-.85c1.1-.48 2.16-1.17 3.02-2.15M12 5a7 7 0 00-7 7 7 7 0 007 7 7 7 0 007-7 7 7 0 00-7-7z"/></svg>