<svg viewBox="0 0 24 24" xmlns="http://www.w3.org/2000/svg"><path d="M20.489 3.512C15.808-1.17 8.191-1.17 3.51 3.51c-4.681 4.681-4.68 12.298 0 16.98 4.68 4.68 12.298 4.68 16.979-.001 4.68-4.681 4.68-12.297 0-16.977zm-1.31 15.668c-3.959 3.958-10.4 3.959-14.36 0C.86 15.22.862 8.78 4.82 4.82c3.96-3.958 10.4-3.959 14.36 0 3.96 3.96 3.959 10.401 0 14.36zM7.521 8.75a1.403 1.403 0 112.807.001 1.403 1.403 0 01-2.807 0zm6.363 0a1.404 1.404 0 112.807.002 1.404 1.404 0 01-2.807-.001zm-7.086 8.102c.87-2.01 2.906-3.31 5.188-3.31 2.33 0 4.38 1.306 5.219 3.327a.679.679 0 11-1.254.52c-.628-1.512-2.185-2.49-3.965-2.49-1.74 0-3.288.978-3.942 2.492a.679.679 0 11-1.246-.539z" fill="currentColor" fill-rule="nonzero"/></svg>
