<svg viewBox="0 0 24 24"><path d="M14.2 16.5c.05.06.14.23.03.44a.8.8 0 01-.23.29c-.15.11-.42.24-.8 0-.2-.12-.2-.17-.5-.13-.2.02-.28-.18-.2-.35.07-.16.36-.3.73-.08.17.09.42.3.65.12.09-.08.15-.13.28-.29h.04m-.45-11.97h-.06c-.11 0-.22 0-.33.01-.39.04-.72.14-.94.26-.02 0-.02.01-.02.02 0 .02.01.03.03.03.07-.01.13-.02.2-.02.62-.07 1.14.04 1.17.23.02.14-.25.29-.65.38-.02.01-.03.03-.03.06 0 0 .01 0 .03.03.17.05.35.08.57.08.64.02 1.17-.21 1.17-.51.01-.31-.5-.56-1.14-.57m-2.78 1.58c-.47 0-.84.07-1.14.08-.33 0-.54-.22-.65-.36-.09-.11-.38-.21-.53.17-.15.34.13.73.35.78 0 0 .43.72.73.42.22-.23.34-.36 1.49-.44.55-.04.61-.17.59-.3-.02-.16-.35-.35-.84-.35M12 2C6.5 2 2 6.47 2 12c0 1.11.18 2.19.5 3.19h.72c.61 0 1.19-.15 1.67-.4.11-.06.26-.1.4-.1.31 0 .57.12.74.39.14.25.28.42.44.5.15.1.34.17.62.16.13-.01.33-.04.38-.18.06-.15-.01-.27-.21-.35-.26-.12-.34-.28-.48-.54-.15-.25-.46-.39-.51-.87-.04-.47.33-1.06 1.06-.87.53.13.87.79 1 1.01.06.12.3.25.49.06.18-.16.37-.16.51.07.13.19 1.02 1.39 2 1.43.99 0 1.52-.24 1.95-.22.3.01.45.16.62.19.3.03.52-.23.85-.21.25.01.57.2.87.2.31 0 .95-.37.94-.22-.02.26-.22.76-.27.96-.04.15-.01.52-.1.8-.08.31-.36.69-.43.8-.26.36-.42.47-.62.86-.23.43-.59.84-.69.95-.12.17.69 0 .98-.28.25-.23.68-.93 1.36-1.08.46-.1.55-.28.5-.44-.02-.02-.02-.04-.02-.06 0-.07.04-.12.09-.15.48-.19 1.14-.32 1.83-.32.41 0 .81.06 1.2.15A9.923 9.923 0 0022 12c0-5.53-4.5-10-10-10m8.13 9.8c-.48 2.63-4.78 3.51-8.97 2.25-3.99-1.21-7.5-3.62-7.09-5.05.23-.8 1.54-1.15 3.27-.96-.26.54-.24 1.17.91 1.87 1.4.8 3.75 1.48 4.42 1.41.23-.02.45-.14.23-.29-.21-.14-.4-.43-.52-.93-.07-.28-.15-.67-1.65-.96-3.23-.61-3.11-1.53-3.02-2.05 0 0 .29-1.29.41-1.75.12-.45.43-1.5 2.51-1.03 1.21.27 1.87-.06 2.19-.15.9-.23 1.9-.07 2.45.5.57.58 1.35 2.39 1.73 3.74.19.69.14 1.02.04 1.25-.07.16-.11.26-.34.66-.05.07-.01.15.08.1.63-.32.77-.74.86-1.07 1.7.38 2.71 1.26 2.49 2.46z"/></svg>