<svg viewBox="0 0 24 24"><path d="M9 13.75c-2.34 0-7 1.17-7 3.5V19h14v-1.75c0-2.33-4.66-3.5-7-3.5M4.34 17c.84-.58 2.87-1.25 4.66-1.25s3.82.67 4.66 1.25M9 12a3.5 3.5 0 003.5-3.5A3.5 3.5 0 009 5a3.5 3.5 0 00-3.5 3.5A3.5 3.5 0 009 12m0-5a1.5 1.5 0 011.5 1.5A1.5 1.5 0 019 10a1.5 1.5 0 01-1.5-1.5A1.5 1.5 0 019 7m7.04 6.81c1.16.84 1.96 1.96 1.96 3.44V19h4v-1.75c0-2.02-3.5-3.17-5.96-3.44M15 12a3.5 3.5 0 003.5-3.5A3.5 3.5 0 0015 5c-.54 0-1.04.13-1.5.35.63.89 1 1.98 1 3.15s-.37 2.26-1 3.15c.46.22.96.35 1.5.35z"/></svg>