<svg viewBox="0 0 24 24"><path d="M13 13.75c-2.34 0-6 1.17-6 3.5V19h12v-1.75c0-2.33-3.66-3.5-6-3.5M9.34 17c.84-.58 1.87-1.25 3.66-1.25s2.82.67 3.66 1.25M13 5a3.5 3.5 0 00-3.5 3.5A3.5 3.5 0 0013 12a3.5 3.5 0 003.5-3.5A3.5 3.5 0 0013 5m0 5a1.5 1.5 0 01-1.5-1.5A1.5 1.5 0 0113 7a1.5 1.5 0 011.5 1.5A1.5 1.5 0 0113 10m6 3.81c1.16.84 1.96 1.96 1.96 3.44V19H24v-1.75c0-2.02-2.54-3.17-5-3.44m2-5.31a3.5 3.5 0 01-3.5 3.5c-.08 0-.16 0-.24-.03.78-.94 1.24-2.15 1.24-3.47 0-1.32-.46-2.53-1.24-3.47.08-.03.16-.03.24-.03A3.5 3.5 0 0121 8.5M0 11h8v2H0"/></svg>